<svg id="ba354ced-3c01-45f5-bde9-1adf156d6856" data-name="Layer 1" xmlns="http://www.w3.org/2000/svg" width="902.28899" height="674.06422" viewBox="0 0 902.28899 674.06422"><title>metrics</title><path d="M500.36467,725.763s211-123,483,0" transform="translate(-148.8555 -112.73091)" fill="none" stroke="#3f3d56" stroke-miterlimit="10"/><path d="M542.81953,706.456a38.155,38.155,0,0,1-30.45485-37.36683V151.37264a38.14173,38.14173,0,0,1,38.14173-38.14173H933.223a38.14172,38.14172,0,0,1,38.14173,38.14173V669.08917a38.14715,38.14715,0,0,1-34.033,37.923" transform="translate(-148.8555 -112.73091)" fill="none" stroke="#3f3d56" stroke-miterlimit="10"/><rect x="387.00918" y="61.97059" width="408" height="471.05882" fill="none" stroke="#3f3d56" stroke-miterlimit="10"/><circle cx="593.00918" cy="31" r="10" fill="none" stroke="#3f3d56" stroke-miterlimit="10"/><path d="M720.40836,671.34852a22.00589,22.00589,0,0,1,42.99021.356" transform="translate(-148.8555 -112.73091)" fill="none" stroke="#3f3d56" stroke-miterlimit="10"/><path d="M490.24533,208.68828a22.982,22.982,0,0,0-19.80994,13.851c-4.9535,11.97381,1.42449,26.03885,10.999,34.77028s21.87358,13.72225,33.04831,20.28233c15.00952,8.81129,28.4968,21.04282,36.00691,36.74387s8.30888,35.15009-.51891,50.1499c-8.1937,13.92241-23.09255,22.25491-37.30219,29.93971" transform="translate(-148.8555 -112.73091)" fill="none" stroke="#3f3d56" stroke-miterlimit="10"/><ellipse cx="354.00918" cy="97" rx="17.5" ry="8.5" fill="#57b894"/><ellipse cx="368.00918" cy="153" rx="17.5" ry="8.5" fill="#57b894"/><ellipse cx="336.00918" cy="162" rx="17.5" ry="8.5" fill="#57b894"/><ellipse cx="386.00918" cy="209" rx="17.5" ry="8.5" fill="#57b894"/><ellipse cx="421.00918" cy="209" rx="17.5" ry="8.5" fill="#57b894"/><path d="M960.70767,552.0536a21.40072,21.40072,0,0,0-18.44688,12.89792c-4.61265,11.14993,1.32649,24.24719,10.24222,32.37783s20.36852,12.77805,30.77434,18.88676c13.97676,8.205,26.536,19.59492,33.52937,34.21562s7.73717,32.7315-.48321,46.69922c-7.62991,12.96444-21.50361,20.7236-34.73552,27.87963" transform="translate(-148.8555 -112.73091)" fill="none" stroke="#3f3d56" stroke-miterlimit="10"/><ellipse cx="823.60321" cy="440.29358" rx="16.29587" ry="7.91514" fill="#57b894"/><ellipse cx="836.63991" cy="492.44037" rx="16.29587" ry="7.91514" fill="#57b894"/><ellipse cx="806.84174" cy="500.8211" rx="16.29587" ry="7.91514" fill="#57b894"/><ellipse cx="853.40138" cy="544.58716" rx="16.29587" ry="7.91514" fill="#57b894"/><ellipse cx="885.99312" cy="544.58716" rx="16.29587" ry="7.91514" fill="#57b894"/><path d="M1000.22144,584.03287a17.47726,17.47726,0,0,1,15.06495,10.53331c3.767,9.10577-1.0833,19.80188-8.36448,26.4419s-16.6343,10.43542-25.13239,15.4242c-11.41436,6.70076-21.67109,16.00252-27.38233,27.94277s-6.3187,26.73074.39461,38.13772c6.2311,10.58763,17.5613,16.92428,28.36737,22.76837" transform="translate(-148.8555 -112.73091)" fill="none" stroke="#3f3d56" stroke-miterlimit="10"/><ellipse cx="841.76924" cy="472.09485" rx="13.3083" ry="6.46403" fill="#57b894"/><ellipse cx="831.1226" cy="514.68142" rx="13.3083" ry="6.46403" fill="#57b894"/><ellipse cx="855.45778" cy="521.52569" rx="13.3083" ry="6.46403" fill="#57b894"/><ellipse cx="817.43406" cy="557.26798" rx="13.3083" ry="6.46403" fill="#57b894"/><ellipse cx="790.81745" cy="557.26798" rx="13.3083" ry="6.46403" fill="#57b894"/><polyline points="455.509 161.032 455.509 387.032 720.509 387.032" fill="none" stroke="#3f3d56" stroke-miterlimit="10"/><rect x="489.50916" y="312.03211" width="22" height="58" fill="#4285f4"/><rect x="534.50916" y="292.03211" width="22" height="78" fill="#4285f4"/><rect x="579.50916" y="268.03211" width="22" height="102" fill="#4285f4"/><rect x="624.50916" y="225.03211" width="22" height="145" fill="#4285f4"/><rect x="669.50916" y="191.03211" width="22" height="179" fill="#4285f4"/><rect x="482.50916" y="305.03211" width="22" height="58" fill="none" stroke="#3f3d56" stroke-miterlimit="10"/><rect x="527.50916" y="285.03211" width="22" height="78" fill="none" stroke="#3f3d56" stroke-miterlimit="10"/><rect x="572.50916" y="261.03211" width="22" height="102" fill="none" stroke="#3f3d56" stroke-miterlimit="10"/><rect x="617.50916" y="218.03211" width="22" height="145" fill="none" stroke="#3f3d56" stroke-miterlimit="10"/><rect x="662.50916" y="184.03211" width="22" height="179" fill="none" stroke="#3f3d56" stroke-miterlimit="10"/></svg>